<?xml version="1.0" encoding="utf-8"?>

<!DOCTYPE svg PUBLIC "-//W3C//DTD SVG 1.1//EN" "http://www.w3.org/Graphics/SVG/1.1/DTD/svg11.dtd">
<!-- Uploaded to: SVG Repo, www.svgrepo.com, Generator: SVG Repo Mixer Tools -->
<svg version="1.1" xmlns="http://www.w3.org/2000/svg" xmlns:xlink="http://www.w3.org/1999/xlink"  width="800px"
	 height="800px" viewBox="0 0 96 96" enable-background="new 0 0 96 96" xml:space="preserve">
<g id="record_x5F_player">
</g>
<g id="trumpet">
</g>
<g id="stereo_x5F_speaker">
</g>
<g id="guitar">
</g>
<g id="speaker">
</g>
<g id="jack">
</g>
<g id="drum_x5F_sticks">
</g>
<g id="drum">
</g>
<g id="cymbal">
	<g opacity="0.6">
		<g>
			<path fill="#47BCFE" d="M46,4C22.80402,4,4,22.80402,4,46c0,23.19592,18.80402,42,42,42s42-18.80408,42-42
				C88,22.80402,69.19598,4,46,4z M46,56c-5.52283,0-10-4.47717-10-10c0-5.52289,4.47717-10,10-10s10,4.47711,10,10
				C56,51.52283,51.52283,56,46,56z"/>
		</g>
	</g>
	<g opacity="0.7">
		<g>
			<path fill="#CCF2FF" d="M36,46c0-5.52289,4.47717-10,10-10V4C22.80402,4,4,22.80402,4,46c0,23.19592,18.80402,42,42,42V56
				C40.47717,56,36,51.52283,36,46z"/>
		</g>
	</g>
	<g>
		<g>
			<path fill="#141B41" d="M46,90C21.73828,90,2,70.26172,2,46S21.73828,2,46,2s44,19.73828,44,44S70.26172,90,46,90z M46,6
				C23.94434,6,6,23.94385,6,46c0,22.05566,17.94434,40,40,40s40-17.94434,40-40C86,23.94385,68.05566,6,46,6z"/>
		</g>
	</g>
	<g>
		<g>
			<path fill="#141B41" d="M46,58c-6.61719,0-12-5.38281-12-12c0-6.6167,5.38281-12,12-12s12,5.3833,12,12
				C58,52.61719,52.61719,58,46,58z M46,38c-4.41113,0-8,3.58887-8,8s3.58887,8,8,8s8-3.58887,8-8S50.41113,38,46,38z"/>
		</g>
	</g>
	<g>
		<g>
			<path fill="#141B41" d="M46,81c-19.29883,0-35-15.70117-35-35s15.70117-35,35-35s35,15.70117,35,35S65.29883,81,46,81z M46,13
				c-18.19629,0-33,14.80371-33,33s14.80371,33,33,33s33-14.80371,33-33S64.19629,13,46,13z"/>
		</g>
	</g>
	<g>
		<g>
			<path fill="#141B41" d="M46,80.5c-19.02344,0-34.5-15.47656-34.5-34.5S26.97656,11.5,46,11.5S80.5,26.97656,80.5,46
				S65.02344,80.5,46,80.5z M46,12.5c-18.47168,0-33.5,15.02783-33.5,33.5c0,18.47168,15.02832,33.5,33.5,33.5
				S79.5,64.47168,79.5,46C79.5,27.52783,64.47168,12.5,46,12.5z"/>
		</g>
	</g>
	<g>
		<g>
			<path fill="#141B41" d="M92,94c-0.51172,0-1.02344-0.19531-1.41406-0.58594L62.41406,65.24219
				c-0.78125-0.78125-0.78125-2.04688,0-2.82812s2.04688-0.78125,2.82812,0l28.17188,28.17188
				c0.78125,0.78125,0.78125,2.04688,0,2.82812C93.02344,93.80469,92.51172,94,92,94z"/>
		</g>
	</g>
	<g>
		<g>
			<path fill="#141B41" d="M46,90H4c-1.10449,0-2-0.89551-2-2s0.89551-2,2-2h42c1.10449,0,2,0.89551,2,2S47.10449,90,46,90z"/>
		</g>
	</g>
	<g>
		<g>
			<path fill="#141B41" d="M92,6H50c-1.10449,0-2-0.89551-2-2s0.89551-2,2-2h42c1.10449,0,2,0.89551,2,2S93.10449,6,92,6z"/>
		</g>
	</g>
	<g>
		<g>
			<path fill="#141B41" d="M92,94H82c-1.10449,0-2-0.89551-2-2s0.89551-2,2-2h10c1.10449,0,2,0.89551,2,2S93.10449,94,92,94z"/>
		</g>
	</g>
	<g>
		<g>
			<path fill="#141B41" d="M74,94h-5c-1.10449,0-2-0.89551-2-2s0.89551-2,2-2h5c1.10449,0,2,0.89551,2,2S75.10449,94,74,94z"/>
		</g>
	</g>
	<g>
		<g>
			<path fill="#141B41" d="M61,67c-3.30859,0-6-2.69141-6-6s2.69141-6,6-6s6,2.69141,6,6S64.30859,67,61,67z M61,59
				c-1.10254,0-2,0.89746-2,2s0.89746,2,2,2s2-0.89746,2-2S62.10254,59,61,59z"/>
		</g>
	</g>
	<g>
		<g>
			<path fill="#141B41" d="M46,37c-0.55273,0-1-0.44775-1-1v-6.375c0-0.55225,0.44727-1,1-1s1,0.44775,1,1V36
				C47,36.55225,46.55273,37,46,37z"/>
		</g>
	</g>
	<g>
		<g>
			<path fill="#141B41" d="M42,32c-0.55273,0-1-0.44775-1-1v-6.375c0-0.55225,0.44727-1,1-1s1,0.44775,1,1V31
				C43,31.55225,42.55273,32,42,32z"/>
		</g>
	</g>
	<g>
		<g>
			<path fill="#141B41" d="M42,69c-0.55273,0-1-0.44727-1-1v-7c0-0.55273,0.44727-1,1-1s1,0.44727,1,1v7
				C43,68.55273,42.55273,69,42,69z"/>
		</g>
	</g>
	<g>
		<g>
			<path fill="#141B41" d="M46,63c-0.55273,0-1-0.44727-1-1v-6c0-0.55273,0.44727-1,1-1s1,0.44727,1,1v6
				C47,62.55273,46.55273,63,46,63z"/>
		</g>
	</g>
	<g>
		<g>
			<path fill="#141B41" d="M36,47h-5c-0.55273,0-1-0.44775-1-1s0.44727-1,1-1h5c0.55273,0,1,0.44775,1,1S36.55273,47,36,47z"/>
		</g>
	</g>
	<g>
		<g>
			<path fill="#141B41" d="M61,47h-5c-0.55273,0-1-0.44775-1-1s0.44727-1,1-1h5c0.55273,0,1,0.44775,1,1S61.55273,47,61,47z"/>
		</g>
	</g>
</g>
<g id="piano">
</g>
<g id="microphone">
</g>
<g id="headphone">
</g>
<g id="musical_x5F_score">
</g>
<g id="accordion">
</g>
<g id="megaphone">
</g>
</svg>