<?xml version="1.0" encoding="iso-8859-1"?>
<!-- Uploaded to: SVG Repo, www.svgrepo.com, Generator: SVG Repo Mixer Tools -->
<svg height="800px" width="800px" version="1.1" id="Layer_1" xmlns="http://www.w3.org/2000/svg" xmlns:xlink="http://www.w3.org/1999/xlink" 
	 viewBox="0 0 512 512" xml:space="preserve">
<path style="fill:#39C8C6;" d="M235.715,436.059l-24.331,17.435h24.331c4.816,0,8.718-3.903,8.718-8.718
	S240.529,436.059,235.715,436.059z"/>
<polygon style="fill:#A9603A;" points="229.23,312.549 211.819,313.464 218.866,447.684 235.715,436.059 "/>
<path style="fill:#D3500C;" d="M235.715,436.059h-35.951l10.639,54.189l-14.414,4.753c-4.573,1.508-7.057,6.437-5.549,11.01
	c1.508,4.574,6.437,7.052,11.01,5.549l31.255-10.306c3.734-1.232,6.181-4.81,5.976-8.737L235.715,436.059z"/>
<path style="fill:#39C8C6;" d="M276.284,436.059l24.331,17.435h-24.331c-4.816,0-8.718-3.903-8.718-8.718
	S271.468,436.059,276.284,436.059z"/>
<polygon style="fill:#A9603A;" points="282.767,312.549 300.18,313.464 293.132,447.684 276.283,436.059 "/>
<path style="fill:#D3500C;" d="M276.283,436.059h35.951l-10.639,54.189l14.414,4.753c4.573,1.508,7.057,6.437,5.549,11.01
	c-1.508,4.574-6.437,7.052-11.01,5.549l-31.255-10.306c-3.734-1.232-6.181-4.81-5.976-8.737L276.283,436.059z"/>
<g>
	<path style="fill:#76DEDD;" d="M296.214,196.496v-17.435c33.405,0,60.582,27.177,60.582,60.582s-27.177,60.582-60.582,60.582
		V282.79c23.791,0,43.147-19.356,43.147-43.147S320.005,196.496,296.214,196.496z"/>
	<path style="fill:#76DEDD;" d="M215.786,196.496v-17.435c-33.405,0-60.582,27.177-60.582,60.582s27.177,60.582,60.582,60.582
		V282.79c-23.791,0-43.147-19.356-43.147-43.147S191.994,196.496,215.786,196.496z"/>
	<path style="fill:#76DEDD;" d="M285.349,168.206H226.65c-10.763,0-19.574,8.799-19.574,19.574v113.551l48.924,23.247l48.924-23.247
		V187.78C304.923,177.005,296.112,168.206,285.349,168.206z"/>
</g>
<path style="fill:#FFD089;" d="M293.544,11.612c2.081,10.578,9.113,56.874,9.287,58.083c-13.356,2.208-29.443,3.975-46.832,3.975
	s-33.476-1.767-46.832-3.975c0.174-1.209,7.207-47.506,9.287-58.083C220.745,0,234.705,0,234.705,0s8.508,7.939,21.294,7.939
	S277.294,0,277.294,0S291.254,0,293.544,11.612z"/>
<path style="fill:#F7D0BC;" d="M302.842,69.719c2.313,5.777,3.58,12.089,3.58,18.702c0,27.85-22.573,50.412-50.412,50.412
	c-27.862,0-50.435-22.561-50.435-50.412c0-6.614,1.267-12.925,3.58-18.702c13.367,2.185,29.454,3.952,46.843,3.952
	C273.388,73.671,289.475,71.904,302.842,69.719z"/>
<path style="fill:#460929;" d="M270.715,240.501c-3.965,0-7.552-2.723-8.485-6.753l-6.23-26.905l-6.23,26.905
	c-1.087,4.691-5.77,7.611-10.46,6.527c-4.69-1.087-7.612-5.769-6.525-10.46l14.724-63.581c0.915-3.952,4.436-6.751,8.493-6.751
	c4.058,0,7.579,2.799,8.493,6.751l14.724,63.581c1.087,4.69-1.835,9.373-6.526,10.46
	C272.028,240.428,271.367,240.501,270.715,240.501z"/>
<path style="fill:#A9603A;" d="M207.072,301.33c0,27.021,21.906,48.927,48.927,48.927s48.927-21.906,48.927-48.927H207.072z"/>
<path style="fill:#FFB13A;" d="M255.999,82.388c-47.745,0-85.506-12.713-87.09-13.254c-4.556-1.556-6.988-6.512-5.432-11.068
	c1.558-4.554,6.513-6.985,11.063-5.433c0.363,0.123,36.739,12.32,81.458,12.32s81.097-12.197,81.458-12.32
	c4.556-1.546,9.508,0.883,11.062,5.44c1.553,4.554-0.876,9.506-5.431,11.061C341.505,69.676,303.744,82.388,255.999,82.388z"/>
</svg>