<?xml version="1.0" encoding="iso-8859-1"?>
<!-- Uploaded to: SVG Repo, www.svgrepo.com, Generator: SVG Repo Mixer Tools -->
<svg version="1.1" id="Layer_1" xmlns="http://www.w3.org/2000/svg" xmlns:xlink="http://www.w3.org/1999/xlink" 
	 viewBox="0 0 512 512" xml:space="preserve">
<rect x="7.837" y="151.51" style="fill:#79CAE8;" width="496.327" height="208.98"/>
<rect x="47.02" y="256" style="fill:#FFFFFF;" width="417.959" height="104.49"/>
<g>
	<rect x="91.052" y="256" style="fill:#4B92B9;" width="31.347" height="52.245"/>
	<rect x="150.768" y="256" style="fill:#4B92B9;" width="31.347" height="52.245"/>
	<rect x="210.474" y="256" style="fill:#4B92B9;" width="31.347" height="52.245"/>
	<rect x="270.179" y="256" style="fill:#4B92B9;" width="31.347" height="52.245"/>
	<rect x="329.885" y="256" style="fill:#4B92B9;" width="31.347" height="52.245"/>
	<rect x="389.601" y="256" style="fill:#4B92B9;" width="31.347" height="52.245"/>
</g>
<rect x="203.755" y="177.633" style="fill:#CAF9F4;" width="104.49" height="52.245"/>
<circle style="fill:#FFFFFF;" cx="106.726" cy="203.755" r="26.122"/>
<path d="M0,143.673v224.653h512V143.673H0z M114.566,263.837v36.571H98.892v-36.571H114.566z M130.239,316.082v-52.245h12.688
	v52.245h15.678v36.571h-44.042v-36.571H130.239z M413.108,300.408h-15.673v-36.571h15.673V300.408z M397.437,316.082v36.571h-44.042
	v-36.571h15.678v-52.245h12.688v52.245H397.437z M353.399,300.408h-15.673v-36.571h15.673V300.408z M337.721,316.082v36.571h-44.032
	v-36.571h15.675v-52.245h12.688v52.245H337.721z M293.691,300.408h-15.673v-36.571h15.673V300.408z M278.016,316.082v36.571h-44.032
	v-36.571h15.671v-52.245h12.688v52.245H278.016z M233.983,300.408h-15.673v-36.571h15.673V300.408z M218.311,316.082v36.571h-44.032
	v-36.571h15.669v-52.245h12.688v52.245H218.311z M174.274,300.408h-15.673v-36.571h15.673V300.408z M496.327,352.653h-83.216
	v-36.571h15.67v-52.245h28.362v75.755h15.673v-91.429H39.184v91.429h15.673v-75.755h28.362v52.245h15.67v36.571H15.673V159.347
	h480.653V352.653z"/>
<path d="M316.082,169.796H195.918v67.918h120.163V169.796z M300.408,222.041h-88.816v-36.571h88.816V222.041z"/>
<path d="M106.729,237.714c18.725,0,33.959-15.234,33.959-33.959s-15.235-33.959-33.959-33.959S72.77,185.029,72.77,203.755
	S88.004,237.714,106.729,237.714z M106.729,185.469c10.082,0,18.286,8.203,18.286,18.286c0,10.082-8.203,18.286-18.286,18.286
	s-18.286-8.203-18.286-18.286C88.443,193.673,96.647,185.469,106.729,185.469z"/>
<rect x="392.537" y="185.125" width="64.982" height="15.673"/>
<polygon points="369.023,208.98 384.697,208.98 384.697,177.633 369.023,177.633 369.023,185.121 353.026,185.121 353.026,200.795 
	369.023,200.795 "/>
<rect x="353.029" y="216.471" width="49.957" height="15.673"/>
<polygon points="426.493,208.98 410.819,208.98 410.819,240.327 426.493,240.327 426.493,232.142 457.516,232.142 457.516,216.468 
	426.493,216.468 "/>
</svg>