<?xml version="1.0" encoding="iso-8859-1"?>
<!-- Uploaded to: SVG Repo, www.svgrepo.com, Generator: SVG Repo Mixer Tools -->
<svg height="800px" width="800px" version="1.1" id="Layer_1" xmlns="http://www.w3.org/2000/svg" xmlns:xlink="http://www.w3.org/1999/xlink" 
	 viewBox="0 0 512 512" xml:space="preserve">
<path style="fill:#FFDC64;" d="M299.083,497.143c-62.972,0-114.203-51.231-114.203-114.203V89.968
	c0-14.746-7.54-26.743-22.286-26.743s-22.286,11.997-22.286,26.743v39.447c0,14.293-5.563,27.727-15.664,37.827
	c-10.106,10.101-23.538,15.665-37.822,15.665H27.393v-50.515h50.515c4.83,0,9.189-1.807,12.606-5.224
	c3.416-3.414,5.222-7.775,5.222-12.611V95.086c0-44.237,35.99-80.229,80.229-80.229s80.229,35.992,80.229,80.229v295.084
	c0,16.385,13.33,29.715,29.715,29.715c16.385,0,29.714-13.33,29.714-29.715v-81.076c0-73.52,59.809-133.332,133.326-133.332h35.657
	V320.98H448.95c-19.661,0-35.657,15.997-35.657,35.657v26.296C413.292,445.909,362.057,497.143,299.083,497.143z"/>
<g>
	<path style="fill:#FF5050;" d="M256.195,300.272c4.833,3.52,10.764,5.62,17.2,5.62c16.172,0,29.281-13.11,29.281-29.281
		c0-16.172-13.11-29.281-29.281-29.281c-6.436,0-12.369,2.101-17.2,5.621L256.195,300.272L256.195,300.272z"/>
	<path style="fill:#FF5050;" d="M256.195,227.288c4.833,3.52,10.764,5.621,17.2,5.621c16.172,0,29.281-13.11,29.281-29.281
		c0-16.172-13.11-29.281-29.281-29.281c-6.436,0-12.369,2.102-17.2,5.62L256.195,227.288L256.195,227.288z"/>
	<path style="fill:#FF5050;" d="M256.195,154.301c4.833,3.52,10.764,5.622,17.2,5.622c16.172,0,29.281-13.11,29.281-29.281
		s-13.11-29.281-29.281-29.281c-6.436,0-12.369,2.102-17.2,5.622L256.195,154.301L256.195,154.301z"/>
</g>
<path style="fill:#FFDC64;" d="M432.607,229.714c0,0-0.471-0.205,0-0.302"/>
<path d="M432.599,244.576c-1.975,0-3.98-0.397-5.906-1.232c-6.103-2.648-9.749-8.815-9.075-15.343
	c0.675-6.521,5.491-11.8,11.988-13.14c8.038-1.661,15.894,3.515,17.551,11.55c0.217,1.049,0.316,2.093,0.309,3.123
	c0.025,2.037-0.37,4.112-1.235,6.1C443.8,241.233,438.336,244.576,432.599,244.576z M435.624,243.959L435.624,243.959
	L435.624,243.959z"/>
<path style="fill:#FFDC64;" d="M367.624,323.922v-14.828c0-24.122,10.556-45.826,27.291-60.733"/>
<path d="M367.624,338.779c-8.206,0-14.857-6.653-14.857-14.857v-14.828c0-27.38,11.761-53.56,32.266-71.827
	c6.127-5.46,15.518-4.916,20.977,1.211c5.459,6.126,4.916,15.517-1.211,20.975c-14.183,12.635-22.317,30.728-22.317,49.64v14.828
	C382.481,332.128,375.828,338.779,367.624,338.779z"/>
<path d="M484.607,145.066c-8.206,0-14.857,6.653-14.857,14.857v0.982h-20.8c-62.292,0-115.723,38.639-137.603,93.207
	c-3.315-5.568-7.813-10.351-13.155-13.993c11.666-7.952,19.341-21.341,19.341-36.492s-7.675-28.541-19.34-36.494
	c11.664-7.952,19.34-21.341,19.34-36.494c0-24.339-19.8-44.139-44.138-44.139c-0.92,0-1.83,0.051-2.741,0.107
	C266.348,38.137,225.537,0,175.966,0c-52.431,0-95.086,42.655-95.086,95.086v19.47c0,0.89-0.244,1.478-0.871,2.105
	c-0.627,0.628-1.215,0.872-2.101,0.872H27.393c-8.206,0-14.857,6.653-14.857,14.857v50.515c0,8.204,6.652,14.857,14.857,14.857
	h59.429c18.249,0,35.411-7.108,48.326-20.016c12.908-12.906,20.017-30.071,20.017-48.334V89.968c0-7.888,2.499-11.886,7.429-11.886
	s7.429,3.998,7.429,11.886V382.94c0,71.163,57.896,129.06,129.06,129.06c71.168,0,129.066-57.9,129.066-129.066v-26.296
	c0-11.47,9.33-20.8,20.8-20.8h20.8v6.83c0,8.204,6.652,14.857,14.857,14.857c8.206,0,14.857-6.653,14.857-14.857V320.98V175.763
	v-15.839C499.464,151.718,492.813,145.066,484.607,145.066z M271.052,262.382c0.735-0.122,1.517-0.192,2.344-0.192
	c7.953,0,14.423,6.47,14.423,14.423c0,7.953-6.47,14.423-14.423,14.423c-0.826,0-1.609-0.07-2.344-0.192L271.052,262.382
	L271.052,262.382z M271.052,189.396c0.735-0.122,1.517-0.192,2.344-0.192c7.953,0,14.423,6.47,14.423,14.425
	c0,7.953-6.47,14.422-14.423,14.422c-0.826,0-1.609-0.07-2.344-0.192L271.052,189.396L271.052,189.396z M241.337,154.301v25.664
	v8.803h-41.6v-44.692h41.6V154.301z M199.737,218.485h41.6v8.803v25.666v8.803h-41.6V218.485z M271.052,320.659
	c0.78,0.04,1.559,0.092,2.344,0.092c10.333,0,19.842-3.579,27.37-9.55v78.969c0,8.192-6.665,14.857-14.857,14.857
	c-8.192,0-14.857-6.665-14.857-14.857V320.659z M287.818,130.643c0,7.955-6.47,14.425-14.423,14.425
	c-0.826,0-1.609-0.07-2.344-0.193v-28.464c0.735-0.123,1.517-0.193,2.344-0.193C281.348,116.218,287.818,122.688,287.818,130.643z
	 M162.594,48.368c-21.87,0-37.143,17.107-37.143,41.6v39.447c0,10.324-4.017,20.026-11.311,27.318
	c-7.301,7.298-17.003,11.317-27.318,11.317H42.25v-20.8h35.657c8.729,0,16.937-3.401,23.109-9.571
	c6.176-6.172,9.577-14.383,9.577-23.121V95.086c0-36.047,29.325-65.372,65.372-65.372s65.372,29.325,65.372,65.372v11.896v7.38
	h-41.6V89.968C199.737,65.473,184.462,48.368,162.594,48.368z M448.95,306.123c-27.854,0-50.515,22.66-50.515,50.515v26.296
	c0,54.783-44.569,99.352-99.352,99.352c-54.78,0-99.346-44.566-99.346-99.346v-91.469h41.6v8.803v89.898
	c0,24.577,19.995,44.572,44.572,44.572s44.572-19.995,44.572-44.572v-81.076c0-65.327,53.146-118.475,118.469-118.475h20.8v115.503
	h-20.8V306.123z"/>
</svg>