<?xml version="1.0" encoding="iso-8859-1"?>
<!-- Uploaded to: SVG Repo, www.svgrepo.com, Generator: SVG Repo Mixer Tools -->
<svg height="800px" width="800px" version="1.1" id="Layer_1" xmlns="http://www.w3.org/2000/svg" xmlns:xlink="http://www.w3.org/1999/xlink" 
	 viewBox="0 0 512 512" xml:space="preserve">
<g>
	<path style="fill:#460929;" d="M226.908,93.887v82.973c0,5.015,4.065,9.082,9.082,9.082c5.017,0,9.082-4.066,9.082-9.082V93.887
		H226.908z"/>
	<path style="fill:#460929;" d="M266.928,93.887v82.973c0,5.015,4.065,9.082,9.082,9.082c5.017,0,9.082-4.066,9.082-9.082V93.887
		H266.928z"/>
</g>
<path style="fill:#A9603A;" d="M308.531,69.53c0,29.019-23.521,52.522-52.541,52.522c-28.999,0-52.522-23.502-52.522-52.522
	s23.521-52.541,52.522-52.541C285.009,16.987,308.531,40.511,308.531,69.53z"/>
<g>
	<path style="fill:#460929;" d="M308.531,78.612c-5.017,0-9.082-4.066-9.082-9.082c0-23.965-19.496-43.461-43.46-43.461
		c-23.952,0-43.439,19.496-43.439,43.461c0,5.015-4.065,9.082-9.082,9.082s-9.082-4.066-9.082-9.082
		c0-33.98,27.635-61.624,61.602-61.624c33.98,0,61.623,27.644,61.623,61.624C317.613,74.545,313.547,78.612,308.531,78.612z"/>
	<path style="fill:#460929;" d="M195.948,51.999v121.038c0,5.015,4.065,9.082,9.082,9.082c5.017,0,9.082-4.066,9.082-9.082V51.999
		H195.948z"/>
	<path style="fill:#460929;" d="M167.616,161.856c-0.453,0-0.911-0.034-1.371-0.103c-4.96-0.751-8.371-5.379-7.62-10.338
		c6.403-42.308,19.138-75.293,41.287-106.951c2.876-4.109,8.537-5.111,12.648-2.234c4.11,2.876,5.11,8.538,2.235,12.648
		c-20.463,29.246-32.248,59.859-38.212,99.256C175.904,158.63,172.031,161.856,167.616,161.856z"/>
	<path style="fill:#460929;" d="M141.414,103.788c-1.993,0-4-0.653-5.675-1.997c-3.912-3.137-4.542-8.854-1.405-12.766
		c26.765-33.384,54.33-55.529,89.375-71.8c4.547-2.111,9.949-0.137,12.062,4.412c2.112,4.549,0.136,9.95-4.414,12.062
		c-32.374,15.033-57.927,35.6-82.852,66.688C146.712,102.623,144.074,103.788,141.414,103.788z"/>
	<path style="fill:#460929;" d="M344.382,161.856c-4.415,0-8.287-3.226-8.968-7.724c-5.962-39.397-17.745-70.008-38.211-99.256
		c-2.875-4.11-1.874-9.772,2.235-12.648c4.11-2.877,9.773-1.876,12.648,2.234c22.151,31.66,34.884,64.644,41.287,106.951
		c0.75,4.959-2.661,9.588-7.621,10.339C345.292,161.822,344.835,161.856,344.382,161.856z"/>
	<path style="fill:#460929;" d="M370.586,103.788c-2.66,0-5.298-1.164-7.091-3.401c-24.925-31.088-50.478-51.655-82.852-66.688
		c-4.549-2.112-6.525-7.512-4.414-12.062c2.113-4.549,7.516-6.524,12.062-4.412c35.044,16.272,62.609,38.416,89.375,71.8
		c3.137,3.912,2.508,9.629-1.405,12.766C374.585,103.134,372.578,103.788,370.586,103.788z"/>
	<path style="fill:#460929;" d="M255.99,26.069c-5.017,0-9.082-4.066-9.082-9.082V9.082c0-5.015,4.065-9.082,9.082-9.082
		c5.017,0,9.082,4.066,9.082,9.082v7.906C265.072,22.003,261.005,26.069,255.99,26.069z"/>
	<path style="fill:#460929;" d="M235.891,30.075c-3.564,0-6.946-2.112-8.395-5.609l-3.025-7.304
		c-1.918-4.634,0.282-9.946,4.917-11.865c4.628-1.92,9.946,0.281,11.865,4.916l3.025,7.304c1.918,4.634-0.282,9.946-4.917,11.865
		C238.226,29.852,237.048,30.075,235.891,30.075z"/>
	<path style="fill:#460929;" d="M218.847,41.463c-2.324,0-4.649-0.886-6.421-2.659l-5.591-5.591
		c-3.548-3.547-3.548-9.297-0.001-12.844c3.548-3.547,9.298-3.547,12.843,0l5.591,5.591c3.548,3.547,3.548,9.297,0.001,12.844
		C223.496,40.575,221.171,41.463,218.847,41.463z"/>
	<path style="fill:#460929;" d="M276.107,30.075c-1.159,0-2.336-0.223-3.472-0.694c-4.634-1.919-6.835-7.233-4.915-11.865
		l3.026-7.304c1.919-4.634,7.234-6.833,11.865-4.914c4.634,1.919,6.835,7.233,4.915,11.865l-3.026,7.304
		C283.053,27.964,279.672,30.075,276.107,30.075z"/>
	<path style="fill:#460929;" d="M293.152,41.463c-2.324,0-4.649-0.886-6.421-2.659c-3.548-3.547-3.548-9.297-0.001-12.844
		l5.589-5.591c3.548-3.547,9.298-3.547,12.843,0c3.548,3.547,3.548,9.297,0.001,12.844l-5.589,5.591
		C297.8,40.575,295.476,41.463,293.152,41.463z"/>
	<path style="fill:#460929;" d="M308.531,78.612c-33.98,0-61.623-27.644-61.623-61.624c0-5.015,4.065-9.082,9.082-9.082
		c5.017,0,9.082,4.066,9.082,9.082c0,23.965,19.496,43.461,43.46,43.461c5.017,0,9.082,4.066,9.082,9.082
		C317.613,74.545,313.547,78.612,308.531,78.612z"/>
	<path style="fill:#460929;" d="M297.888,51.999v121.038c0,5.015,4.065,9.082,9.082,9.082c5.017,0,9.082-4.066,9.082-9.082V51.999
		H297.888z"/>
</g>
<path style="fill:#FFB13A;" d="M149.912,221.897c-34.418,0-68.472-15.395-91.019-44.729c-3.056-3.977-2.312-9.679,1.665-12.735
	c3.978-3.057,9.679-2.31,12.735,1.665c15.704,20.431,38.425,33.523,63.977,36.865c25.55,3.341,50.875-3.466,71.306-19.171
	c1.587-1.219,3.532-1.882,5.535-1.882h83.778c2.002,0,3.947,0.661,5.534,1.882c42.174,32.418,102.864,24.482,135.284-17.695
	c3.055-3.975,8.756-4.722,12.735-1.665c3.977,3.056,4.722,8.758,1.666,12.735c-22.547,29.331-56.606,44.727-91.021,44.729
	c-23.41,0.001-46.977-7.118-67.216-21.821h-77.743C196.893,214.777,173.32,221.897,149.912,221.897z"/>
<g>
	<path style="fill:#76DEDD;" d="M237.964,490.498l-9.843-187.482l-18.138,0.953l9.48,180.552l0.346,0.111l-26.332,9.658
		c-4.764,1.57-7.351,6.706-5.781,11.469c1.571,4.765,6.706,7.35,11.469,5.781l32.559-11.942
		C235.704,498.287,238.156,494.485,237.964,490.498z"/>
	<path style="fill:#76DEDD;" d="M274.034,490.498l9.843-187.482l18.138,0.953l-9.48,180.552l-0.346,0.111l26.332,9.658
		c4.764,1.57,7.351,6.706,5.781,11.469c-1.57,4.765-6.706,7.35-11.469,5.781l-32.559-11.942
		C276.294,498.287,273.842,494.485,274.034,490.498z"/>
</g>
<path style="fill:#FFB13A;" d="M286.574,152.644h-61.149c-11.218,0-20.395,9.177-20.395,20.395v118.29h101.939v-118.29
	C306.969,161.82,297.792,152.644,286.574,152.644z"/>
<path style="fill:#76DEDD;" d="M205.03,291.328c0,28.151,22.82,50.97,50.97,50.97s50.97-22.82,50.97-50.97H205.03z"/>
<path style="fill:#5C4853;" d="M246.918,152.644v144.74c0,5.015,4.065,9.082,9.082,9.082c5.017,0,9.082-4.066,9.082-9.082v-144.74
	H246.918z"/>
</svg>